<?xml version="1.0" encoding="utf-8"?>
<svg version="1.1" xmlns:xlink="http://www.w3.org/1999/xlink" width="24px" height="14px" xmlns="http://www.w3.org/2000/svg">
  <g transform="matrix(1 0 0 1 -302 -1095 )">
    <path d="M 23.875 4.82444733420026  C 23.9583333333333 4.93368010403121  24 5.07325530992631  24 5.24317295188557  L 24 8.73862158647594  C 24 8.9085392284352  23.9583333333333 9.0481144343303  23.875 9.15734720416125  C 23.7916666666667 9.2665799739922  23.6851851851852 9.32119635890767  23.5555555555556 9.32119635890767  L 6.22222222222222 9.32119635890767  L 6.22222222222222 13.3992197659298  C 6.22222222222222 13.6540962288687  6.13425925925926 13.8300823580407  5.95833333333333 13.927178153446  C 5.78240740740741 14.0242739488513  5.62037037037037 13.9939315127872  5.47222222222222 13.8361508452536  L 0.138888888888889 7.46423927178154  C 0.0462962962962964 7.34286952752492  0 7.20329432162982  0 7.04551365409623  C 0 6.87559601213697  0.0462962962962964 6.72995231902904  0.138888888888889 6.60858257477243  L 5.47222222222222 0.163849154746424  C 5.62037037037037 -0.00606848721283404  5.78240740740741 -0.0424794104898165  5.95833333333333 0.0546163849154753  C 6.13425925925926 0.163849154746424  6.22222222222222 0.339835283918509  6.22222222222222 0.582574772431729  L 6.22222222222222 4.66059817945384  L 23.5555555555556 4.66059817945384  C 23.6851851851852 4.66059817945384  23.7916666666667 4.71521456436931  23.875 4.82444733420026  Z " fill-rule="nonzero" fill="#7f7f7f" stroke="none" transform="matrix(1 0 0 1 302 1095 )" />
  </g>
</svg>