<?xml version="1.0" encoding="utf-8"?>
<svg version="1.1" xmlns:xlink="http://www.w3.org/1999/xlink" width="16px" height="21px" xmlns="http://www.w3.org/2000/svg">
  <g transform="matrix(1 0 0 1 -354 -772 )">
    <path d="M 12.2965034965035 10.5  L 15.2727272727273 12.60546875  C 15.6158508158508 12.8424479166667  15.8377622377622 13.1956380208333  15.9384615384615 13.6650390625  C 16.0391608391608 14.1344401041667  15.9925407925408 14.5787760416667  15.7986013986014 14.998046875  L 15.0825174825175 16.501953125  C 14.8885780885781 16.9212239583333  14.5995337995338 17.1923828125  14.2153846153846 17.3154296875  C 13.8312354312354 17.4384765625  13.4675990675991 17.3815104166667  13.1244755244755 17.14453125  L 10.1482517482517 15.052734375  L 10.1482517482517 19.25  C 10.1482517482517 19.7239583333333  10.0065268065268 20.1341145833333  9.72307692307692 20.48046875  C 9.43962703962704 20.8268229166667  9.1039627039627 21  8.71608391608392 21  L 7.28391608391608 21  C 6.8960372960373 21  6.56037296037296 20.8268229166667  6.27692307692308 20.48046875  C 5.99347319347319 20.1341145833333  5.85174825174825 19.7239583333333  5.85174825174825 19.25  L 5.85174825174825 15.052734375  L 2.87552447552448 17.14453125  C 2.53240093240093 17.3815104166667  2.16876456876457 17.4384765625  1.78461538461538 17.3154296875  C 1.4004662004662 17.1923828125  1.11142191142191 16.9212239583333  0.917482517482518 16.501953125  L 0.201398601398601 14.998046875  C 0.00745920745920751 14.5787760416667  -0.0391608391608392 14.1344401041667  0.0615384615384615 13.6650390625  C 0.162237762237762 13.1956380208333  0.384149184149184 12.8424479166667  0.727272727272727 12.60546875  L 3.7034965034965 10.5  L 0.727272727272727 8.39453125  C 0.384149184149184 8.15755208333333  0.162237762237762 7.80436197916667  0.0615384615384615 7.3349609375  C -0.0391608391608392 6.86555989583333  0.00745920745920751 6.42122395833333  0.201398601398601 6.001953125  L 0.917482517482518 4.498046875  C 1.11142191142191 4.07877604166667  1.4004662004662 3.8076171875  1.78461538461538 3.6845703125  C 2.16876456876457 3.5615234375  2.53240093240093 3.61848958333333  2.87552447552448 3.85546875  L 5.85174825174825 5.947265625  L 5.85174825174825 1.75  C 5.85174825174825 1.27604166666667  5.99347319347319 0.865885416666666  6.27692307692308 0.519531250000001  C 6.56037296037296 0.173177083333331  6.8960372960373 0  7.28391608391608 0  L 8.71608391608392 0  C 9.1039627039627 0  9.43962703962704 0.173177083333331  9.72307692307692 0.519531250000001  C 10.0065268065268 0.865885416666666  10.1482517482517 1.27604166666667  10.1482517482517 1.75  L 10.1482517482517 5.947265625  L 13.1244755244755 3.85546875  C 13.4675990675991 3.61848958333333  13.8312354312354 3.5615234375  14.2153846153846 3.6845703125  C 14.5995337995338 3.8076171875  14.8885780885781 4.07877604166667  15.0825174825175 4.498046875  L 15.7986013986014 6.001953125  C 15.9925407925408 6.42122395833333  16.0391608391608 6.86555989583333  15.9384615384615 7.3349609375  C 15.8377622377622 7.80436197916667  15.6158508158508 8.15755208333333  15.2727272727273 8.39453125  L 12.2965034965035 10.5  Z " fill-rule="nonzero" fill="#d9001b" stroke="none" transform="matrix(1 0 0 1 354 772 )" />
  </g>
</svg>