<?xml version="1.0" encoding="utf-8"?>
<svg version="1.1" xmlns:xlink="http://www.w3.org/1999/xlink" width="16px" height="17px" xmlns="http://www.w3.org/2000/svg">
  <g transform="matrix(1 0 0 1 -322 -725 )">
    <path d="M 12.2965034965035 8.5  L 15.2727272727273 10.2044270833333  C 15.6158508158508 10.3962673611111  15.8377622377622 10.6821831597222  15.9384615384615 11.0621744791667  C 16.0391608391608 11.4421657986111  15.9925407925408 11.8018663194444  15.7986013986014 12.1412760416667  L 15.0825174825175 13.3587239583333  C 14.8885780885781 13.6981336805556  14.5995337995338 13.9176432291667  14.2153846153846 14.0172526041667  C 13.8312354312354 14.1168619791667  13.4675990675991 14.0707465277778  13.1244755244755 13.87890625  L 10.1482517482517 12.185546875  L 10.1482517482517 15.5833333333333  C 10.1482517482517 15.9670138888889  10.0065268065268 16.2990451388889  9.72307692307692 16.5794270833333  C 9.43962703962704 16.8598090277778  9.1039627039627 17  8.71608391608392 17  L 7.28391608391608 17  C 6.8960372960373 17  6.56037296037296 16.8598090277778  6.27692307692308 16.5794270833333  C 5.99347319347319 16.2990451388889  5.85174825174825 15.9670138888889  5.85174825174825 15.5833333333333  L 5.85174825174825 12.185546875  L 2.87552447552448 13.87890625  C 2.53240093240093 14.0707465277778  2.16876456876457 14.1168619791667  1.78461538461538 14.0172526041667  C 1.4004662004662 13.9176432291667  1.11142191142191 13.6981336805556  0.917482517482518 13.3587239583333  L 0.201398601398601 12.1412760416667  C 0.00745920745920751 11.8018663194444  -0.0391608391608392 11.4421657986111  0.0615384615384615 11.0621744791667  C 0.162237762237762 10.6821831597222  0.384149184149184 10.3962673611111  0.727272727272727 10.2044270833333  L 3.7034965034965 8.5  L 0.727272727272727 6.79557291666667  C 0.384149184149184 6.60373263888889  0.162237762237762 6.31781684027778  0.0615384615384615 5.93782552083333  C -0.0391608391608392 5.55783420138889  0.00745920745920751 5.19813368055555  0.201398601398601 4.85872395833333  L 0.917482517482518 3.64127604166667  C 1.11142191142191 3.30186631944444  1.4004662004662 3.08235677083333  1.78461538461538 2.98274739583333  C 2.16876456876457 2.88313802083333  2.53240093240093 2.92925347222222  2.87552447552448 3.12109375  L 5.85174825174825 4.814453125  L 5.85174825174825 1.41666666666667  C 5.85174825174825 1.03298611111111  5.99347319347319 0.70095486111111  6.27692307692308 0.420572916666667  C 6.56037296037296 0.140190972222221  6.8960372960373 0  7.28391608391608 0  L 8.71608391608392 0  C 9.1039627039627 0  9.43962703962704 0.140190972222221  9.72307692307692 0.420572916666667  C 10.0065268065268 0.70095486111111  10.1482517482517 1.03298611111111  10.1482517482517 1.41666666666667  L 10.1482517482517 4.814453125  L 13.1244755244755 3.12109375  C 13.4675990675991 2.92925347222222  13.8312354312354 2.88313802083333  14.2153846153846 2.98274739583333  C 14.5995337995338 3.08235677083333  14.8885780885781 3.30186631944444  15.0825174825175 3.64127604166667  L 15.7986013986014 4.85872395833333  C 15.9925407925408 5.19813368055555  16.0391608391608 5.55783420138889  15.9384615384615 5.93782552083333  C 15.8377622377622 6.31781684027778  15.6158508158508 6.60373263888889  15.2727272727273 6.79557291666667  L 12.2965034965035 8.5  Z " fill-rule="nonzero" fill="#d9001b" stroke="none" transform="matrix(1 0 0 1 322 725 )" />
  </g>
</svg>