<?xml version="1.0" encoding="utf-8"?>
<svg version="1.1" xmlns:xlink="http://www.w3.org/1999/xlink" width="14px" height="25px" xmlns="http://www.w3.org/2000/svg">
  <g transform="matrix(1 0 0 1 -474 -152 )">
    <path d="M 9.03567567567567 18.984375  C 9.15675675675676 19.140625  9.2172972972973 19.3229166666667  9.2172972972973 19.53125  L 9.2172972972973 24.21875  C 9.2172972972973 24.4270833333333  9.15675675675676 24.609375  9.03567567567567 24.765625  C 8.9145945945946 24.921875  8.77333333333333 25  8.61189189189189 25  L 4.97945945945946 25  C 4.81801801801802 25  4.67675675675676 24.921875  4.55567567567568 24.765625  C 4.43459459459459 24.609375  4.37405405405405 24.4270833333333  4.37405405405405 24.21875  L 4.37405405405405 19.53125  C 4.37405405405405 19.3229166666667  4.43459459459459 19.140625  4.55567567567568 18.984375  C 4.67675675675676 18.828125  4.81801801801802 18.75  4.97945945945946 18.75  L 8.61189189189189 18.75  C 8.77333333333333 18.75  8.9145945945946 18.828125  9.03567567567567 18.984375  Z M 13.3794594594595 4.716796875  C 13.7931531531532 5.69986979166666  14 6.73177083333333  14 7.8125  C 14 8.515625  13.9218018018018 9.17317708333333  13.7654054054054 9.78515625  C 13.609009009009 10.3971354166667  13.4324324324324 10.8951822916667  13.2356756756757 11.279296875  C 13.0389189189189 11.6634114583333  12.7614414414414 12.05078125  12.4032432432432 12.44140625  C 12.045045045045 12.83203125  11.754954954955 13.115234375  11.532972972973 13.291015625  C 11.310990990991 13.466796875  11.0032432432432 13.6979166666667  10.6097297297297 13.984375  C 10.196036036036 14.2838541666667  9.85045045045045 14.70703125  9.57297297297297 15.25390625  C 9.2954954954955 15.80078125  9.15675675675676 16.2369791666667  9.15675675675676 16.5625  C 9.15675675675676 16.7838541666667  9.09621621621622 16.9954427083333  8.97513513513513 17.197265625  C 8.85405405405405 17.3990885416667  8.71279279279279 17.5  8.55135135135135 17.5  L 4.91891891891892 17.5  C 4.76756756756757 17.5  4.63891891891892 17.3795572916667  4.53297297297297 17.138671875  C 4.42702702702703 16.8977864583333  4.37405405405405 16.6536458333333  4.37405405405405 16.40625  L 4.37405405405405 15.52734375  C 4.37405405405405 14.4466145833333  4.70198198198198 13.427734375  5.35783783783784 12.470703125  C 6.01369369369369 11.513671875  6.73513513513514 10.8072916666667  7.52216216216216 10.3515625  C 8.11747747747748 10  8.54126126126126 9.63541666666667  8.79351351351351 9.2578125  C 9.04576576576577 8.88020833333333  9.17189189189189 8.38541666666666  9.17189189189189 7.7734375  C 9.17189189189189 7.2265625  8.9372972972973 6.74479166666667  8.46810810810811 6.328125  C 7.99891891891892 5.91145833333333  7.45657657657658 5.703125  6.84108108108108 5.703125  C 6.18522522522523 5.703125  5.64036036036036 5.89192708333333  5.20648648648649 6.26953125  C 4.85333333333333 6.59505208333333  4.31351351351351 7.34375  3.58702702702703 8.515625  C 3.45585585585586 8.72395833333333  3.29945945945946 8.828125  3.11783783783784 8.828125  C 2.99675675675676 8.828125  2.87063063063063 8.77604166666666  2.73945945945946 8.671875  L 0.257297297297297 6.23046875  C 0.126126126126126 6.10026041666666  0.0479279279279282 5.9375  0.0227027027027027 5.7421875  C -0.00252252252252238 5.546875  0.0252252252252253 5.36458333333333  0.105945945945946 5.1953125  C 1.72036036036036 1.73177083333333  4.06126126126126 0  7.12864864864865 0  C 7.93585585585586 0  8.74810810810811 0.201822916666666  9.56540540540541 0.605468749999999  C 10.3827027027027 1.00911458333333  11.1192792792793 1.54947916666666  11.7751351351351 2.2265625  C 12.430990990991 2.90364583333333  12.9657657657658 3.73372395833333  13.3794594594595 4.716796875  Z " fill-rule="nonzero" fill="#000000" stroke="none" transform="matrix(1 0 0 1 474 152 )" />
  </g>
</svg>