<?xml version="1.0" encoding="utf-8"?>
<svg version="1.1" xmlns:xlink="http://www.w3.org/1999/xlink" width="12px" height="14px" xmlns="http://www.w3.org/2000/svg">
  <g transform="matrix(1 0 0 1 -344 -655 )">
    <path d="M 11.8797595190381 1.44329896907216  C 11.9599198396794 1.60366552119129  12 1.78808705612829  12 1.99656357388316  C 12 2.20504009163803  11.9599198396794 2.38946162657503  11.8797595190381 2.54982817869416  L 6.27655310621242 13.7594501718213  C 6.19639278557114 13.9198167239404  6.10420841683367 14  6 14  C 5.89579158316633 14  5.80360721442886 13.9198167239404  5.72344689378757 13.7594501718213  L 0.120240480961924 2.54982817869416  C 0.0400801603206414 2.38946162657503  0 2.20504009163803  0 1.99656357388316  C 0 1.78808705612829  0.0400801603206414 1.60366552119129  0.120240480961924 1.44329896907216  L 0.721442885771543 0.240549828178695  C 0.801603206412826 0.0801832760595629  0.893787575150301 0  0.997995991983968 0  C 1.10220440881764 0  1.19438877755511 0.0801832760595629  1.27454909819639 0.240549828178695  L 6 9.69415807560137  L 10.7254509018036 0.240549828178695  C 10.8056112224449 0.0801832760595629  10.8977955911824 0  11.002004008016 0  C 11.1062124248497 0  11.1983967935872 0.0801832760595629  11.2785571142285 0.240549828178695  L 11.8797595190381 1.44329896907216  Z " fill-rule="nonzero" fill="#aaaaaa" stroke="none" transform="matrix(1 0 0 1 344 655 )" />
  </g>
</svg>