<?xml version="1.0" encoding="utf-8"?>
<svg version="1.1" xmlns:xlink="http://www.w3.org/1999/xlink" width="18px" height="17px" xmlns="http://www.w3.org/2000/svg">
  <g transform="matrix(1 0 0 1 -391 -127 )">
    <path d="M 391 127  L 409 127  L 409 144  L 391 144  L 391 127  " fill-rule="nonzero" fill="#cccccc" stroke="none" />
    <path d="M 392 128  L 408 128  L 408 143  L 392 143  L 392 128  " fill-rule="nonzero" fill="#ffffff" stroke="none" />
    <path d="M 401.635 132.1  C 400.921 132.1  400.36 131.539  400.36 130.825  C 400.36 130.111  400.921 129.55  401.635 129.55  C 402.349 129.55  402.91 130.111  402.91 130.825  C 402.91 131.539  402.349 132.1  401.635 132.1  " fill-rule="nonzero" fill="#cccccc" stroke="none" />
    <path d="M 393 143  L 393 135.3  L 396.75 131.8  L 402 135.066666666667  L 405 133.9  L 408 135.066666666667  L 408 143  L 393 143  " fill-rule="nonzero" fill="#169bd5" stroke="none" />
  </g>
</svg>