<?xml version="1.0" encoding="utf-8"?>
<svg version="1.1" xmlns:xlink="http://www.w3.org/1999/xlink" width="15px" height="18px" xmlns="http://www.w3.org/2000/svg">
  <g transform="matrix(1 0 0 1 -457 -268 )">
    <path d="M 457 268  L 472 268  L 472 286  L 457 286  L 457 268  " fill-rule="nonzero" fill="#cccccc" stroke="none" />
    <path d="M 458 269  L 471 269  L 471 285  L 458 285  L 458 269  " fill-rule="nonzero" fill="#ffffff" stroke="none" />
    <path d="M 465.925 272.95  C 465.295 272.95  464.8 272.455  464.8 271.825  C 464.8 271.195  465.295 270.7  465.925 270.7  C 466.555 270.7  467.05 271.195  467.05 271.825  C 467.05 272.455  466.555 272.95  465.925 272.95  " fill-rule="nonzero" fill="#cccccc" stroke="none" />
    <path d="M 459 285  L 459 276.75  L 462 273  L 466.2 276  L 468.6 275.25  L 471 276  L 471 285  L 459 285  " fill-rule="nonzero" fill="#169bd5" stroke="none" />
  </g>
</svg>