<?xml version="1.0" encoding="utf-8"?>
<svg version="1.1" xmlns:xlink="http://www.w3.org/1999/xlink" width="14px" height="24px" xmlns="http://www.w3.org/2000/svg">
  <g transform="matrix(1 0 0 1 -545 -270 )">
    <path d="M 9.03567567567567 18.225  C 9.15675675675676 18.375  9.2172972972973 18.55  9.2172972972973 18.75  L 9.2172972972973 23.25  C 9.2172972972973 23.45  9.15675675675676 23.625  9.03567567567567 23.775  C 8.9145945945946 23.925  8.77333333333333 24  8.61189189189189 24  L 4.97945945945946 24  C 4.81801801801802 24  4.67675675675676 23.925  4.55567567567568 23.775  C 4.43459459459459 23.625  4.37405405405405 23.45  4.37405405405405 23.25  L 4.37405405405405 18.75  C 4.37405405405405 18.55  4.43459459459459 18.375  4.55567567567568 18.225  C 4.67675675675676 18.075  4.81801801801802 18  4.97945945945946 18  L 8.61189189189189 18  C 8.77333333333333 18  8.9145945945946 18.075  9.03567567567567 18.225  Z M 13.3794594594595 4.528125  C 13.7931531531532 5.471875  14 6.4625  14 7.5  C 14 8.175  13.9218018018018 8.80625  13.7654054054054 9.39375  C 13.609009009009 9.98125  13.4324324324324 10.459375  13.2356756756757 10.828125  C 13.0389189189189 11.196875  12.7614414414414 11.56875  12.4032432432432 11.94375  C 12.045045045045 12.31875  11.754954954955 12.590625  11.532972972973 12.759375  C 11.310990990991 12.928125  11.0032432432432 13.15  10.6097297297297 13.425  C 10.196036036036 13.7125  9.85045045045045 14.11875  9.57297297297297 14.64375  C 9.2954954954955 15.16875  9.15675675675676 15.5875  9.15675675675676 15.9  C 9.15675675675676 16.1125  9.09621621621622 16.315625  8.97513513513513 16.509375  C 8.85405405405405 16.703125  8.71279279279279 16.8  8.55135135135135 16.8  L 4.91891891891892 16.8  C 4.76756756756757 16.8  4.63891891891892 16.684375  4.53297297297297 16.453125  C 4.42702702702703 16.221875  4.37405405405405 15.9875  4.37405405405405 15.75  L 4.37405405405405 14.90625  C 4.37405405405405 13.86875  4.70198198198198 12.890625  5.35783783783784 11.971875  C 6.01369369369369 11.053125  6.73513513513514 10.375  7.52216216216216 9.9375  C 8.11747747747748 9.6  8.54126126126126 9.25  8.79351351351351 8.8875  C 9.04576576576577 8.525  9.17189189189189 8.05  9.17189189189189 7.4625  C 9.17189189189189 6.9375  8.9372972972973 6.475  8.46810810810811 6.075  C 7.99891891891892 5.675  7.45657657657658 5.475  6.84108108108108 5.475  C 6.18522522522523 5.475  5.64036036036036 5.65625  5.20648648648649 6.01875  C 4.85333333333333 6.33125  4.31351351351351 7.05  3.58702702702703 8.175  C 3.45585585585586 8.375  3.29945945945946 8.475  3.11783783783784 8.475  C 2.99675675675676 8.475  2.87063063063063 8.425  2.73945945945946 8.325  L 0.257297297297297 5.98125  C 0.126126126126126 5.85625  0.0479279279279282 5.7  0.0227027027027027 5.5125  C -0.00252252252252238 5.325  0.0252252252252253 5.15  0.105945945945946 4.9875  C 1.72036036036036 1.6625  4.06126126126126 0  7.12864864864865 0  C 7.93585585585586 0  8.74810810810811 0.19375  9.56540540540541 0.581249999999999  C 10.3827027027027 0.968749999999998  11.1192792792793 1.4875  11.7751351351351 2.1375  C 12.430990990991 2.7875  12.9657657657658 3.584375  13.3794594594595 4.528125  Z " fill-rule="nonzero" fill="#000000" stroke="none" transform="matrix(1 0 0 1 545 270 )" />
  </g>
</svg>