<?xml version="1.0" encoding="utf-8"?>
<svg version="1.1" xmlns:xlink="http://www.w3.org/1999/xlink" width="26px" height="27px" xmlns="http://www.w3.org/2000/svg">
  <g transform="matrix(1 0 0 1 -507 -788 )">
    <path d="M 507 788  L 533 788  L 533 815  L 507 815  L 507 788  " fill-rule="nonzero" fill="#cccccc" stroke="none" />
    <path d="M 509 790  L 531 790  L 531 813  L 509 813  L 509 790  " fill-rule="nonzero" fill="#ffffff" stroke="none" />
    <path d="M 522.47 795.95  C 521.378 795.95  520.52 795.092  520.52 794  C 520.52 792.908  521.378 792.05  522.47 792.05  C 523.562 792.05  524.42 792.908  524.42 794  C 524.42 795.092  523.562 795.95  522.47 795.95  " fill-rule="nonzero" fill="#cccccc" stroke="none" />
    <path d="M 510 813  L 510 800.9  L 515.25 795.4  L 522.6 799.8  L 526.8 798.7  L 531 799.8  L 531 813  L 510 813  " fill-rule="nonzero" fill="#169bd5" stroke="none" />
  </g>
</svg>